<?xml version="1.0" encoding="UTF-8"?>
<svg id="Layer_1" data-name="Layer 1" xmlns="http://www.w3.org/2000/svg" xmlns:xlink="http://www.w3.org/1999/xlink" viewBox="0 0 1080 1080">
  <defs>
    <style>
      .cls-1, .cls-2, .cls-3, .cls-4, .cls-5, .cls-6, .cls-7, .cls-8, .cls-9, .cls-10, .cls-11, .cls-12, .cls-13, .cls-14, .cls-15, .cls-16, .cls-17, .cls-18, .cls-19, .cls-20, .cls-21, .cls-22, .cls-23, .cls-24, .cls-25, .cls-26, .cls-27, .cls-28, .cls-29, .cls-30, .cls-31 {
        fill: none;
      }

      .cls-2 {
        stroke: #4b3943;
      }

      .cls-2, .cls-3, .cls-4, .cls-5, .cls-6, .cls-7, .cls-8, .cls-9, .cls-10, .cls-11, .cls-12, .cls-13, .cls-14, .cls-15, .cls-16, .cls-17, .cls-18, .cls-19, .cls-20, .cls-21, .cls-22, .cls-23, .cls-24, .cls-25, .cls-26, .cls-27, .cls-28, .cls-29, .cls-30, .cls-31 {
        stroke-miterlimit: 10;
      }

      .cls-32 {
        fill: #0f214b;
      }

      .cls-3 {
        stroke: #e78545;
      }

      .cls-4 {
        stroke: #775d60;
      }

      .cls-33 {
        fill: #f7771f;
      }

      .cls-34 {
        fill: #2a2d48;
      }

      .cls-5 {
        stroke: #ac5c30;
      }

      .cls-6 {
        stroke: #935436;
      }

      .cls-7 {
        stroke: #5f4040;
      }

      .cls-8 {
        stroke: #92685b;
      }

      .cls-35 {
        fill: #d6936b;
      }

      .cls-9 {
        stroke: #864f37;
      }

      .cls-10 {
        stroke: #3f3445;
      }

      .cls-11 {
        stroke: #553d42;
      }

      .cls-12 {
        stroke: #9c5633;
      }

      .cls-13 {
        stroke: #7b4a3b;
      }

      .cls-14 {
        stroke: #e27024;
      }

      .cls-36 {
        fill: #9a7f7d;
      }

      .cls-15 {
        stroke: #834e39;
      }

      .cls-16 {
        stroke: #b4602e;
      }

      .cls-17 {
        stroke: #312e47;
      }

      .cls-37 {
        fill: #8a5038;
      }

      .cls-18 {
        stroke: #d27e4a;
      }

      .cls-19 {
        stroke: #493844;
      }

      .cls-20 {
        stroke: #9b6b59;
      }

      .cls-38 {
        fill: #9b5734;
      }

      .cls-21 {
        stroke: #83625e;
      }

      .cls-39 {
        fill: #cd6828;
      }

      .cls-40 {
        fill: #3f3545;
      }

      .cls-22 {
        stroke: #3d3345;
      }

      .cls-23 {
        stroke: #4d3942;
      }

      .cls-24 {
        stroke: #6d5a61;
      }

      .cls-25 {
        stroke: #353147;
      }

      .cls-26 {
        stroke: #b97550;
      }

      .cls-27 {
        stroke: #a16c55;
      }

      .cls-28 {
        stroke: #1d274a;
      }

      .cls-41 {
        clip-path: url(#clippath);
      }

      .cls-29 {
        stroke: #6f463d;
      }

      .cls-30 {
        stroke: #6e453a;
      }

      .cls-31 {
        stroke: #834c35;
      }

      .cls-42 {
        fill: #533b42;
      }

      .cls-43 {
        fill: #6b443e;
      }
    </style>
    <clipPath id="clippath">
      <path class="cls-1" d="M409.38,44.89c-64.86,12.37-127.44,41.33-175.39,87.07-54.93,52.45-81.3,121.38-82.58,197.09-.52,30.79,4.26,60.76,14.34,89.91,15.25,44.15,46.18,84.19,82.77,114.36,14.84,11.87,30.41,22.87,46.74,32.97,20.82,12.63,42.36,24.04,64.6,34.25l102.42,46.78c27.43,12.75,53.94,27.05,79.53,42.92,23.25,15.02,43.63,32.99,61.16,53.92,32.6,40.29,46.44,90.05,40.63,142-3.72,32.78-15.75,62.03-36.06,87.75-2.88,3.66-8.85,10.42-17.9,20.29-10.64,10.36-24.18,20.23-40.61,29.59-17.86,10.18-36.65,17.82-56.36,22.91-.32.08-.54.4-.5.74.04.34.32.6.66.6,23.27.62,46.42-.26,69.47-2.61,21.34-3.4,42.48-7.94,63.4-13.62,12.15-3.32,23.95-7.7,35.36-13.13,39.72-18,79.39-36.12,118.99-54.37.12-.06,6.23-2.7,18.34-7.96,19.91-8.63,38.17-20.01,54.81-34.15,15.77-12.71,29.61-27.35,41.51-43.91,7.98-11.34,14.74-23.43,20.29-36.28l5.33-13.98c4-12.61,6.7-25.5,8.09-38.66,1.27-26.45-3-48.87-21.32-68.89-.56-.6-1.43-.78-2.19-.44l-150.81,68.12c-1.13.52-1.39,2.01-.48,2.86,10.38,9.67,17.14,21.38,20.27,35.12,2.78,13.13,3.5,24.72,2.13,34.8-.58,4.2-2.47,12.11-5.69,23.79l-3.96,12.73-7.38,18c-6.23,12.57-13.76,24.18-22.57,34.86-16.47,21.06-36.1,38.84-58.89,53.34,8.71-8.59,17.42-16.96,26.15-25.12,3.44-3.2,6.3-6.26,8.61-9.15,2.21-2.78,4.77-6.11,7.7-9.94.4-.54.74-1.11,1.01-1.71.87-1.93,1.25-3.28,1.15-4.02,0-.04,1.23-.99,2.78-2.15.64-.48.78-1.15.4-2.01,3.66-4.08,6.42-8.65,8.27-13.72.16-.46.42-.88.76-1.21,1.07-1.11,1.71-2.57,1.89-4.38.08-.76.48-1.43,1.05-1.89,2.29-1.81,3.82-4.32,4.61-7.5.16-.64.4-1.25.7-1.85,2.41-4.71,4.55-9.49,6.4-14.32.06-.18.91-2.05,2.57-5.65,1.01-2.21,1.73-4.47,2.17-6.82.7-3.82,1.17-6.19,1.41-7.1,1.39-5.43,2.17-8.49,2.33-9.21,1.49-6.68.76-12.95,1.15-21.44,1.51-31.72-14.92-59.8-47.17-65.99-.22-.04-.38-.2-.46-.4-.16-.54.04-1.05.58-1.59l133.95-60.42c.97-.44,1.51-1.49,1.29-2.55-9.03-43.06-28.9-83.71-57.52-116.98-30.35-35.3-73.63-64.74-116.9-86.99-30.35-15.59-59.9-29.16-88.68-40.69l-74.82-30.17-75.62-30.77c-21.12-8.65-41.81-18.52-62.03-29.55-27.01-14.5-48.96-27.74-71.58-47.16-19.75-17.08-33.85-31.26-46.64-53.22-16.47-28.24-24.2-57.64-20.39-90.27,6.24-53.18,43.4-96.16,94.43-112.35,36.02-11.42,71.8-11.36,109.72-2.96,24.54,5.43,46.54,13.25,66.01,23.45,30.31,15.91,57.1,35.84,80.35,59.76,64.78,66.63,91.25,156.42,89.85,248.74-.02.78.76,1.35,1.49,1.09l209.6-70.58c1.03-.36,1.71-1.35,1.61-2.45l-.95-12.19c-1.49-18.75-4.57-37.25-9.25-55.49-6.64-23.97-15.19-48.91-26.93-70.9-13.11-24.08-29.1-46.32-47.95-66.67-3.16-3.42-7.44-7.46-12.81-12.09-26.05-24.3-55.21-42.44-87.89-58.09-28.38-12.13-57.68-21.14-87.89-27.01-28.92-5.63-61.06-7.76-91.17-8.17-37.33-.5-74.52,3.86-111.53,13.07M339.67,100.61c-11.71,3.6-23.19,8.57-34.39,14.96-17.4,10.4-31.16,24.86-41.33,43.36l-4.53,9.27c-4.55,10.46-7.36,21.28-8.39,32.46-2.65,33.35,5.75,63.22,25.14,89.58,13.7,18.64,30.83,35.16,51.39,49.62,26.27,18.48,54.27,34.37,83.97,47.71.5.22.95-.38.6-.8-3.06-3.56-5.83-6.86-8.27-9.86-21.3-25.99-33.73-60.92-31.48-94.81.86-12.15,3.02-23.99,6.48-35.46l6.03-14.06c8.89-16.75,17.78-29.83,31.78-41.73,10.02-9.51,21.52-17.08,34.47-22.75,3.48-1.69,8.15-3.62,14.04-5.77,10.84-3.98,21.7-6.07,32.56-6.26.02,0,.02-.02,0-.04-.02-.02-.04-.02-.06-.04-.08-.06-.16-.08-.26-.08h-.78s-.04-.02-.04-.04.02-.04.04-.04c16.01-2.43,31.64-2.23,46.92.58.86.16,1.37-.95.68-1.49-3.64-2.88-12.21-9.21-25.72-18.99-5.29-3.84-11.02-7.34-17.18-10.52-8.25-4.24-14.34-7.16-18.22-8.73-15.77-6.38-32.24-11.93-49.36-16.61-8.33-2.29-17.06-3.58-26.19-3.92-27.39-1.01-45.88-2.66-67.88,4.47M527.42,207.15c-5.33-.4-17.5-1.29-21.68,2.35-4.95,4.32-4.08,9.43-4.14,17.72-.2,21.24-.16,40.39.1,57.46.02,1.07-.7,1.39-2.15.93-8.41-.28-16.83-.3-25.26-.06-1.89.06-3.38,1.59-3.36,3.48,0,1.27.64,2.59,1.89,3.96,8.93,9.8,17.98,19.49,27.13,29.04l22.95,24.64c1.35,1.45,3.64,1.51,5.07.12l7.48-7.38c14.1-15.17,28.18-30.39,42.26-45.66,1.47-1.59,2.19-3.12,2.17-4.57-.02-1.97-1.69-3.58-3.8-3.7-5.33-.32-13.42-.42-24.26-.3-.89.02-1.65-.68-1.73-1.57-1.61-20.05-.52-40.89,0-75.42.02-.74-.6-1.35-1.33-1.33l-21.34.3M491.14,386.55h63.05l17.9.3c17.28.74,35.36-.46,35.74-22.63.16-9.84.1-20.68-.16-32.52-.02-.64-.54-1.15-1.17-1.15h-15.49c-2.23,0-4.02,1.79-4.02,4.02v30.25c0,.56-.44.99-.99,1.01l-15.95.24-17.36.08-59.8-.06-27.51-.02c-.97,0-1.75-.78-1.75-1.75,0-9.29.06-18.75.16-28.42.06-3.58-1.77-5.37-5.45-5.35-4.81.02-9.49,0-14.04-.06-.7-.02-1.25.56-1.27,1.25-.04,6.26-.02,15.67.08,28.22.08,10.72,2.01,18.52,10.5,23.91,2.92,1.87,8.93,2.8,17.98,2.8,6.54,0,13.07-.04,19.57-.12M183.65,851c5.79,13.74,12.41,27.07,19.91,39.96l14.06,21.24,14.48,18.32c8.01,10.08,16.77,19.43,26.21,28l26.91,22.27c14.18,10.66,29.04,19.81,44.57,27.45,17.58,8.61,35.88,15.06,54.89,19.37,26.83,6.46,53.86,8.15,81.04,5.07,8.89-.99,17.58-2.74,26.11-5.23,17.84-5.21,31.42-9.33,45.9-17.94,24.86-14.76,48.85-32.99,62.71-58.35.26-.46-.02-1.05-.54-1.13-32.42-5.51-64.14-14.22-93.3-29.93-13.15-7.62-25.64-16.07-37.43-25.34-11.26-9.57-21.78-19.89-31.58-30.93-10.62-12.35-20.11-25.62-28.44-39.8l-11.4-22.16-10.16-26.09-6.94-24.82-6.44-42.38-1.31-36.53c-.02-.88-.91-1.49-1.75-1.21l-210,70.72c-.48.16-.8.64-.78,1.13,1.43,35.98,8.67,74.98,23.27,108.31h0Z"/>
    </clipPath>
  </defs>
  <g class="cls-41">
    <path class="cls-14" d="M699.97,67c.3,9.25-4.16,15.23-13.35,17.92-17.28,5.05-36.89,5.87-54.83,7.46"/>
    <path class="cls-31" d="M631.79,92.38c-21.16-12.79-37.71-20.07-57.46-27.72-7.3-2.84-13.56-4.97-18.77-6.42-24.56-6.82-45.74-11.24-63.54-13.29-18.36-2.11-32.76-2.76-43.2-1.97-19.27,1.47-32.42,2.11-39.44,1.91"/>
    <path class="cls-30" d="M631.79,92.38c20.8,12.47,39.78,27.19,56.94,44.17"/>
    <path class="cls-23" d="M688.73,136.55c22.97,22.69,41.92,48.41,56.88,77.13"/>
    <path class="cls-17" d="M745.61,213.68c12.51,24.74,22.16,50.54,28.96,77.39"/>
    <path class="cls-28" d="M774.57,291.06l8.99,51.57c.1.54.6.93,1.13.89,33.59-2.51,66.96-6.94,100.1-13.29M253.06,288c-2.74,81.74-5.67,163.66-4.53,245.32"/>
    <path class="cls-5" d="M787.85,125.1c-32.4,7.3-65.45,11.12-99.12,11.46"/>
    <path class="cls-25" d="M299.7,341.22c-.82,60.52-2.25,120.92-4.3,181.16-.34,10.48-.4,25.12-.14,43.91"/>
    <line class="cls-10" x1="875.54" y1="274.75" x2="774.57" y2="291.06"/>
    <path class="cls-29" d="M848.61,203.85c-34.11,6.15-68.46,9.41-103,9.82"/>
    <path class="cls-19" d="M371.27,388.38c-5.87,29.61-10.32,59.27-13.4,88.96"/>
    <path class="cls-24" d="M357.87,477.34l-57.04,26.39c-3.2,1.49-4.61,5.29-3.16,8.55l.1.24c1.45,3.24,5.23,4.69,8.43,3.26l59.03-26.49"/>
    <line class="cls-19" x1="365.23" y1="489.29" x2="370.84" y2="522.56"/>
    <path class="cls-24" d="M370.84,522.56l-24.98,11.36c-2.98,1.35-4.34,4.97-3.08,8.21l.08.22c1.23,3.22,4.71,4.87,7.74,3.68l11.65-4.61"/>
    <line class="cls-11" x1="362.24" y1="541.42" x2="359.86" y2="600.54"/>
    <path class="cls-29" d="M433.3,417.93c-2.31,27.66-6.94,54.93-13.88,81.82"/>
    <path class="cls-4" d="M419.42,499.75l-48.59,22.81M365.23,489.29l47.27-21.96c3.2-1.49,4.61-5.29,3.16-8.53l-.12-.24c-1.43-3.22-5.19-4.69-8.39-3.26l-49.28,22.04"/>
    <line class="cls-21" x1="422.98" y1="513.19" x2="362.24" y2="541.42"/>
    <path class="cls-27" d="M501,563.17l-29.06,12.77c-.18.08-.34.16-.5.26l-18.26,10.32c-.18.1-.36.24-.52.38-6.15,5.63.16,13.19,7.98,9.15"/>
    <line class="cls-15" x1="460.65" y1="596.05" x2="462.28" y2="647.32"/>
    <line class="cls-6" x1="508.92" y1="448.7" x2="510.05" y2="508.56"/>
    <path class="cls-8" d="M510.05,508.56l-58.17,27.58s-.02.02-.04.02l-28.32,11.95"/>
    <line class="cls-13" x1="423.52" y1="548.12" x2="422.98" y2="513.19"/>
    <path class="cls-8" d="M422.98,513.19l46.16-21.74c2.94-1.37,4.22-4.95,2.88-8.11l-.1-.22c-1.25-2.98-4.65-4.45-7.7-3.3-15.57,5.87-30.51,12.51-44.81,19.93"/>
    <path class="cls-26" d="M563.11,550.56l-85.08,39.36c-.2.1-.4.18-.6.24l-16.79,5.89"/>
    <path class="cls-16" d="M583.74,478.87c-6.26,16.67-9.11,33.81-8.55,51.41"/>
    <line class="cls-26" x1="575.19" y1="530.28" x2="501" y2="563.17"/>
    <line class="cls-15" x1="501" y1="563.17" x2="495.1" y2="530.68"/>
    <path class="cls-20" d="M495.1,530.68c8.21-4.08,16.75-7.78,25.56-11.1,5.21-1.95,13.21-5.51,11.85-12.07-.88-4.32-3.54-5.75-8.01-4.3-4.91,1.61-9.73,3.38-14.44,5.35"/>
    <path class="cls-21" d="M495.1,530.68c-12.91,7.08-29.32,13.01-39.76,18.2-12.71,6.32-24.62,11.5-35.78,15.53-.66.24-1.29.56-1.89.93-4.83,3.16-10.3,5.69-16.41,7.58-3.2.99-6.6-.89-7.48-4.14l-.08-.32c-1.01-3.78,1.05-7.68,4.73-8.95l25.08-11.4"/>
    <path class="cls-26" d="M568.56,582.9l-59.9,27.86c-3.36,1.55-4.83,5.51-3.32,8.89l.12.26c1.45,3.3,5.37,4.75,8.73,3.24l24.14-10.76"/>
    <path class="cls-14" d="M711.6,786.5c8.35-10.96,21.48-13.96,32.58-20.21,10.44-5.87,16.89-7.8,30.41-12.57,3-1.05,11.06-4.24,24.14-9.51,14.4-5.79,26.41-13.31,41.21-20.35.76-.36,1.15-1.19.97-2.03-4.89-21.18-12.09-42.26-21.58-63.28-11.24-24.82-27.29-43.73-46.34-64-6.56-6.98-13.44-13.33-20.64-19.03-14.32-11.32-21.72-17.16-22.2-17.54-6.74-5.25-16.67-11.97-29.77-20.17-.6-.36-1.31-.48-1.97-.28-8.71,2.51-15.61,6.46-17.5,14.22-2.17,8.89-2.59,19.33-1.27,31.36"/>
    <path class="cls-18" d="M679.64,583.12c-37.91,17.2-75.75,34.35-113.54,51.43-4.16,1.89-7.34,3.94-9.53,6.15-.48.46-.8,1.07-.91,1.73-.58,3.16.38,5.65,2.86,7.5.54.42,1.19.64,1.87.62,3.08-.04,6.01-.66,8.77-1.87,19.67-8.65,39.24-17.5,58.69-26.59"/>
    <line class="cls-14" x1="627.85" y1="622.08" x2="633.98" y2="653.9"/>
    <path class="cls-18" d="M633.98,653.9c-10.76,5.47-20.21,9.92-28.3,13.36-3.9,1.63-7.9,4.47-6.72,9.27.76,3.12,3.04,4.97,6.86,5.53"/>
    <path class="cls-14" d="M605.81,682.06c.58,20.56-.36,41.27-2.84,62.09"/>
    <line class="cls-16" x1="541.81" y1="690.24" x2="538.33" y2="612.4"/>
    <path class="cls-18" d="M538.33,612.4l104.41-48.13c3.32-1.53,4.83-5.43,3.4-8.83l-.1-.24c-1.41-3.34-5.27-4.87-8.55-3.38l-68.93,31.09"/>
    <line class="cls-16" x1="568.56" y1="582.9" x2="563.11" y2="550.56"/>
    <path class="cls-18" d="M563.11,550.56l25.84-12.17c3.18-1.49,4.75-5.03,3.64-8.21l-.2-.54c-1.15-3.3-4.89-4.91-8.07-3.48l-9.13,4.12"/>
    <path class="cls-14" d="M725.34,949.56l-16.17,16.9c-.08.08-.1.16-.08.24.02.08.02.14-.02.18-.06.06-.04.1.04.12.06.02.16,0,.22-.06.34-.36,3.78-4.06,10.28-11.08.22-.24.62-.18.78.1l.34.58c.06.1.04.22-.04.32-11.48,11.81-19.65,20.05-24.48,24.68-8.45,8.09-14.94,13.72-19.41,16.91-5.31,3.76-18.4,12.03-39.26,24.82-.42.26-.95.04-1.11-.42-7.38-21.22-9.75-43.22-7.14-65.99.78-6.74,2.59-14.28,5.47-22.61,5.13-14.92,12.53-30.71,8.85-48.09"/>
    <path class="cls-3" d="M605.81,682.06l127.54-57.93c3.22-1.45,4.65-5.27,3.24-8.59l-.1-.26c-1.41-3.3-5.21-4.83-8.41-3.4l-94.11,42.02M627.85,622.08l65.35-30.01c.22-.1.42-.24.6-.4,2.8-2.63,3.56-5.37,2.27-8.25-2.82-6.26-11.97-3.08-16.43-.3"/>
    <path class="cls-9" d="M677.53,1003.66c-5.79,4.83-12.67,9.21-20.62,13.15-.42.2-.62.68-.46,1.11.14.44.58.7,1.03.6.86-.18,2.05-.14,3.58.16"/>
    <path class="cls-16" d="M562.3,1045.42c-1.25-9.61-4-18.34,2.29-27.31.36-.52.84-.97,1.37-1.29,10-6.19,17.9-13.74,23.69-22.63"/>
    <path class="cls-11" d="M853.2,922.19c-32.52,4.22-57.28,11.16-90.35,21.58-4.53,1.43-13.35,3.62-26.43,6.54"/>
    <path class="cls-13" d="M894.71,878.28c-13.56,4.2-22.87,7.28-27.92,9.27-34.8,13.68-70.74,22.99-107.79,27.9"/>
    <path class="cls-6" d="M915,842.01c-10.44,11.71-22.27,20.01-35.5,24.88-23.19,8.55-48.45,19.43-70.48,24.42-13.98,3.16-28.18,5.21-42.64,6.15"/>
    <path class="cls-16" d="M920.33,828.02c-12.69,9.21-24.03,15.45-34.01,18.75-25.12,8.29-49.98,17.24-74.6,26.87-6.78,2.64-20.56,6.34-41.39,11.08"/>
    <path class="cls-14" d="M928.42,789.36l-.54-3.08c-.1-.5-.72-.68-1.07-.32-11.69,11.91-23.35,20.76-34.98,26.57-17.8,8.91-41.23,17.5-70.32,25.76-12.91,3.68-26.33,5.25-40.27,4.75-.62-.02-1.15-.42-1.37-.99l-5.97-15.91"/>
    <path class="cls-16" d="M451.12,168.09c-9.77-6.86-27.74-19.05-53.96-36.53-19.07-12.73-38.25-23.05-57.5-30.95"/>
    <path class="cls-15" d="M416.66,190.85c-11.87-10.08-22.95-18.64-33.21-25.64-23.05-15.75-49.1-32.3-78.16-49.64"/>
    <path class="cls-11" d="M384.88,232.57c-40.39-28.02-77.74-52.62-120.92-73.65"/>
    <path class="cls-25" d="M378.85,246.63c-41.31-23.63-81.12-49.78-119.43-78.44"/>
    <line class="cls-28" x1="372.37" y1="282.09" x2="251.03" y2="200.65"/>
    <path class="cls-15" d="M535.45,339.41c-4.89-20.88-7.4-40.49-7.54-58.85-.18-24.4-.36-48.89-.5-73.41"/>
    <path class="cls-2" d="M499.95,322.03c1.41-12.45,2.55-25.14-.4-36.42"/>
    <path class="cls-22" d="M492.87,366.08c-3.8,6.98-4.38,13.8-1.73,20.46"/>
    <path class="cls-12" d="M552.67,366.14c-.52,6.98-.02,13.78,1.51,20.41"/>
    <path class="cls-14" d="M572.08,386.84c2.05-6.86,1.37-13.78-2.05-20.78"/>
    <path class="cls-28" d="M374.22,708.58c-47.85,40.39-94.55,77.27-140.07,110.58-14.62,10.68-31.44,21.3-50.5,31.84"/>
    <path class="cls-25" d="M380.66,750.96c-12.79,7.66-22.79,14.28-29.99,19.87-16.83,13.11-51.77,40.93-104.83,83.51-8.33,6.7-22.41,18.89-42.28,36.61"/>
    <line class="cls-19" x1="387.6" y1="775.78" x2="217.62" y2="912.19"/>
    <path class="cls-7" d="M397.76,801.87c-41.75,36.89-83.75,70.74-125.97,101.55-10.7,7.82-23.93,16.85-39.7,27.09"/>
    <path class="cls-13" d="M409.16,824.03c-16.49,17.96-31.6,32.48-45.35,43.54-36.24,29.18-71.52,55.95-105.51,90.95"/>
    <path class="cls-6" d="M437.6,863.82c-19.97,13.56-37.09,26.31-51.37,38.26-35.34,29.57-69.01,55.81-101.01,78.7"/>
    <path class="cls-16" d="M469.18,894.75c-20.74,11.06-42.84,25.97-66.31,44.75-28.8,23.03-53.16,45.94-73.09,68.73"/>
    <path class="cls-14" d="M506.61,920.09c-33.19,16.75-62.79,39.44-91.05,63.3-14.24,12.03-24.54,26.77-30.89,44.21"/>
  </g>
  <path class="cls-33" d="M699.97,67c.3,9.25-4.16,15.23-13.35,17.92-17.28,5.05-36.89,5.87-54.83,7.46-21.16-12.79-37.71-20.07-57.46-27.72-7.3-2.84-13.56-4.97-18.77-6.42-24.56-6.82-45.74-11.24-63.54-13.29-18.36-2.11-32.76-2.76-43.2-1.97-19.27,1.47-32.42,2.11-39.44,1.91,37.01-9.21,74.2-13.56,111.53-13.07,30.11.42,62.25,2.55,91.17,8.17,30.21,5.87,59.51,14.88,87.89,27.01h0Z"/>
  <path class="cls-32" d="M631.79,92.38c20.8,12.47,39.78,27.19,56.94,44.17,22.97,22.69,41.92,48.41,56.88,77.13,12.51,24.74,22.16,50.54,28.96,77.39l8.99,51.57c.1.54.6.93,1.13.89,33.59-2.51,66.96-6.94,100.1-13.29l.95,12.19c.1,1.09-.58,2.09-1.61,2.45l-209.6,70.58c-.74.26-1.51-.32-1.49-1.09,1.39-92.32-25.08-182.12-89.85-248.74-23.25-23.93-50.04-43.85-80.35-59.76-19.47-10.2-41.47-18.02-66.01-23.45-37.93-8.39-73.71-8.45-109.72,2.96-51.03,16.19-88.18,59.17-94.43,112.35-3.82,32.64,3.92,62.03,20.39,90.27-2.74,81.74-5.67,163.66-4.53,245.32-36.59-30.17-67.52-70.21-82.77-114.36-10.08-29.16-14.86-59.13-14.34-89.91,1.27-75.71,27.64-144.65,82.58-197.09,47.95-45.74,110.54-74.7,175.39-87.07,7.02.2,20.17-.44,39.44-1.91,10.44-.8,24.84-.14,43.2,1.97,17.8,2.05,38.98,6.46,63.54,13.29,5.21,1.45,11.48,3.58,18.77,6.42,19.75,7.66,36.3,14.94,57.46,27.72h0Z"/>
  <path class="cls-39" d="M699.97,67c32.68,15.65,61.83,33.79,87.89,58.09-32.4,7.3-65.45,11.12-99.12,11.46-17.16-16.98-36.14-31.7-56.94-44.17,17.94-1.59,37.55-2.41,54.83-7.46,9.19-2.68,13.64-8.67,13.35-17.92h0Z"/>
  <path class="cls-39" d="M451.12,168.09c-9.77-6.86-27.74-19.05-53.96-36.53-19.07-12.73-38.25-23.05-57.5-30.95,22-7.14,40.49-5.49,67.88-4.47,9.13.34,17.86,1.63,26.19,3.92,17.12,4.67,33.59,10.22,49.36,16.61,3.88,1.57,9.96,4.49,18.22,8.73,6.17,3.18,11.89,6.68,17.18,10.52,13.5,9.79,22.08,16.11,25.72,18.99.7.54.18,1.65-.68,1.49-15.27-2.8-30.91-3-46.92-.58-.02,0-.04.02-.04.04s.02.04.04.04h.78c.1,0,.18.02.26.08.02.02.04.02.06.04.02.02.02.04,0,.04-10.86.2-21.72,2.29-32.56,6.26-5.89,2.15-10.56,4.08-14.04,5.77h0Z"/>
  <path class="cls-38" d="M451.12,168.09c-12.95,5.67-24.44,13.25-34.47,22.75-11.87-10.08-22.95-18.64-33.21-25.64-23.05-15.75-49.1-32.3-78.16-49.64,11.2-6.38,22.67-11.36,34.39-14.96,19.25,7.9,38.42,18.22,57.5,30.95,26.21,17.48,44.19,29.67,53.96,36.53h0Z"/>
  <path class="cls-43" d="M416.66,190.85c-14,11.89-22.89,24.98-31.78,41.73-40.39-28.02-77.74-52.62-120.92-73.65,10.16-18.5,23.93-32.95,41.33-43.36,29.06,17.34,55.11,33.89,78.16,49.64,10.26,7,21.34,15.55,33.21,25.64h0Z"/>
  <path class="cls-37" d="M848.61,203.85c-34.11,6.15-68.46,9.41-103,9.82-14.96-28.72-33.91-54.43-56.88-77.13,33.67-.34,66.72-4.16,99.12-11.46,5.37,4.63,9.65,8.67,12.81,12.09,18.85,20.35,34.84,42.58,47.95,66.67h0Z"/>
  <path class="cls-40" d="M384.88,232.57l-6.03,14.06c-41.31-23.63-81.12-49.78-119.43-78.44l4.53-9.27c43.18,21.02,80.53,45.62,120.92,73.65h0Z"/>
  <path class="cls-34" d="M378.85,246.63c-3.46,11.48-5.63,23.31-6.48,35.46l-121.34-81.44c1.03-11.18,3.84-22,8.39-32.46,38.3,28.66,78.12,54.81,119.43,78.44h0Z"/>
  <path class="cls-32" d="M372.37,282.09c-2.25,33.89,10.18,68.81,31.48,94.81,2.45,3,5.21,6.3,8.27,9.86.36.42-.1,1.01-.6.8-29.69-13.35-57.7-29.24-83.97-47.71-20.56-14.46-37.69-30.99-51.39-49.62-19.39-26.35-27.78-56.22-25.14-89.58l121.34,81.44h0Z"/>
  <path class="cls-42" d="M848.61,203.85c11.73,22,20.29,46.94,26.93,70.9l-100.97,16.31c-6.8-26.85-16.45-52.64-28.96-77.39,34.55-.42,68.89-3.68,103-9.82h0Z"/>
  <path class="cls-38" d="M535.45,339.41c-4.89-20.88-7.4-40.49-7.54-58.85-.18-24.4-.36-48.89-.5-73.41l21.34-.3c.74-.02,1.35.6,1.33,1.33-.52,34.53-1.61,55.37,0,75.42.08.89.84,1.59,1.73,1.57,10.84-.12,18.93-.02,24.26.3,2.11.12,3.78,1.73,3.8,3.7.02,1.45-.7,2.98-2.17,4.57-14.08,15.27-28.16,30.49-42.26,45.66h0Z"/>
  <path class="cls-43" d="M527.42,207.15c.14,24.52.32,49,.5,73.41.14,18.36,2.65,37.97,7.54,58.85l-7.48,7.38c-1.43,1.39-3.72,1.33-5.07-.12l-22.95-24.64c1.41-12.45,2.55-25.14-.4-36.42,1.45.46,2.17.14,2.15-.93-.26-17.06-.3-36.22-.1-57.46.06-8.29-.82-13.4,4.14-17.72,4.18-3.64,16.35-2.74,21.68-2.35h0Z"/>
  <path class="cls-39" d="M585.95,229.39c8.53,8.47,21.42,18.83,21.92,21.48.12.68-.38,1.31-1.07,1.33-7.46.18-14.88.18-22.22.04-6.66-.16-12.61-.36-16.81-4.51-4.2-4.16-4.45-10.1-4.65-16.77-.22-7.34-.28-14.76-.18-22.22.02-.7.66-1.19,1.33-1.07,2.65.48,13.13,13.27,21.68,21.72h0Z"/>
  <path class="cls-34" d="M875.54,274.75c4.67,18.24,7.76,36.73,9.25,55.49-33.13,6.34-66.51,10.78-100.1,13.29-.54.04-1.03-.36-1.13-.89l-8.99-51.57,100.97-16.31h0Z"/>
  <path class="cls-34" d="M499.55,285.61c2.94,11.28,1.81,23.97.4,36.42-9.15-9.55-18.2-19.23-27.13-29.04-1.25-1.37-1.89-2.68-1.89-3.96-.02-1.89,1.47-3.42,3.36-3.48,8.43-.24,16.85-.22,25.26.06h0Z"/>
  <path class="cls-34" d="M299.7,341.22c-.82,60.52-2.25,120.92-4.3,181.16-.34,10.48-.4,25.12-.14,43.91-16.33-10.1-31.9-21.1-46.74-32.97-1.13-81.66,1.79-163.58,4.53-245.32,12.79,21.96,26.89,36.14,46.64,53.22h0Z"/>
  <path class="cls-32" d="M492.87,366.08c-3.8,6.98-4.38,13.8-1.73,20.46-6.5.08-13.03.12-19.57.12-9.05,0-15.06-.93-17.98-2.8-8.49-5.39-10.42-13.19-10.5-23.91-.1-12.55-.12-21.96-.08-28.22.02-.7.58-1.27,1.27-1.25,4.55.06,9.23.08,14.04.06,3.68-.02,5.51,1.77,5.45,5.35-.1,9.67-.16,19.13-.16,28.42,0,.97.78,1.75,1.75,1.75l27.51.02h0Z"/>
  <path class="cls-33" d="M572.08,386.84c2.05-6.86,1.37-13.78-2.05-20.78l15.95-.24c.56-.02.99-.46.99-1.01v-30.25c0-2.23,1.79-4.02,4.02-4.02h15.49c.64,0,1.15.52,1.17,1.15.26,11.83.32,22.67.16,32.52-.38,22.18-18.46,23.37-35.74,22.63h0Z"/>
  <path class="cls-40" d="M371.27,388.38c-5.87,29.61-10.32,59.27-13.4,88.96l-57.04,26.39c-3.2,1.49-4.61,5.29-3.16,8.55l.1.24c1.45,3.24,5.23,4.69,8.43,3.26l59.03-26.49,5.61,33.27-24.98,11.36c-2.98,1.35-4.34,4.97-3.08,8.21l.08.22c1.23,3.22,4.71,4.87,7.74,3.68l11.65-4.61-2.39,59.13c-22.24-10.2-43.77-21.62-64.6-34.25-.26-18.79-.2-33.43.14-43.91,2.05-60.24,3.48-120.64,4.3-181.16,22.61,19.41,44.57,32.66,71.58,47.16h0Z"/>
  <path class="cls-43" d="M552.67,366.14c-.52,6.98-.02,13.78,1.51,20.41h-63.05c-2.65-6.66-2.07-13.48,1.73-20.46l59.8.06h0Z"/>
  <path class="cls-39" d="M570.04,366.06c3.42,7,4.1,13.92,2.05,20.78l-17.9-.3c-1.53-6.62-2.03-13.42-1.51-20.41l17.36-.08h0Z"/>
  <path class="cls-42" d="M433.3,417.93c-2.31,27.66-6.94,54.93-13.88,81.82l-48.59,22.81-5.61-33.27,47.27-21.96c3.2-1.49,4.61-5.29,3.16-8.53l-.12-.24c-1.43-3.22-5.19-4.69-8.39-3.26l-49.28,22.04c3.08-29.69,7.54-59.35,13.4-88.96,20.23,11.04,40.91,20.9,62.03,29.55h0Z"/>
  <path class="cls-37" d="M508.92,448.7l1.13,59.86-58.17,27.58s-.02.02-.04.02l-28.32,11.95-.54-34.92,46.16-21.74c2.94-1.37,4.22-4.95,2.88-8.11l-.1-.22c-1.25-2.98-4.65-4.45-7.7-3.3-15.57,5.87-30.51,12.51-44.81,19.93,6.94-26.89,11.58-54.16,13.88-81.82l75.62,30.77h0Z"/>
  <path class="cls-38" d="M583.74,478.87c-6.26,16.67-9.11,33.81-8.55,51.41l-74.18,32.9-5.91-32.5c8.21-4.08,16.75-7.78,25.56-11.1,5.21-1.95,13.21-5.51,11.85-12.07-.88-4.32-3.54-5.75-8.01-4.3-4.91,1.61-9.73,3.38-14.44,5.35l-1.13-59.86,74.82,30.17h0Z"/>
  <path class="cls-36" d="M365.23,489.29l-59.03,26.49c-3.2,1.43-6.98-.02-8.43-3.26l-.1-.24c-1.45-3.26-.04-7.06,3.16-8.55l57.04-26.39,49.28-22.04c3.2-1.43,6.96.04,8.39,3.26l.12.24c1.45,3.24.04,7.04-3.16,8.53l-47.27,21.96h0Z"/>
  <path class="cls-39" d="M583.74,478.87c28.78,11.54,58.33,25.1,88.68,40.69,43.28,22.25,86.55,51.69,116.9,86.99,28.62,33.27,48.49,73.92,57.52,116.98.22,1.05-.32,2.11-1.29,2.55l-133.95,60.42c8.35-10.96,21.48-13.96,32.58-20.21,10.44-5.87,16.89-7.8,30.41-12.57,3-1.05,11.06-4.24,24.14-9.51,14.4-5.79,26.41-13.31,41.21-20.35.76-.36,1.15-1.19.97-2.03-4.89-21.18-12.09-42.26-21.58-63.28-11.24-24.82-27.29-43.73-46.34-64-6.56-6.98-13.44-13.33-20.64-19.03-14.32-11.32-21.72-17.16-22.2-17.54-6.74-5.25-16.67-11.97-29.77-20.17-.6-.36-1.31-.48-1.97-.28-8.71,2.51-15.61,6.46-17.5,14.22-2.17,8.89-2.59,19.33-1.27,31.36-37.91,17.2-75.75,34.35-113.54,51.43-4.16,1.89-7.34,3.94-9.53,6.15-.48.46-.8,1.07-.91,1.73-.58,3.16.38,5.65,2.86,7.5.54.42,1.19.64,1.87.62,3.08-.04,6.01-.66,8.77-1.87,19.67-8.65,39.24-17.5,58.69-26.59l6.13,31.82c-10.76,5.47-20.21,9.92-28.3,13.36-3.9,1.63-7.9,4.47-6.72,9.27.76,3.12,3.04,4.97,6.86,5.53.58,20.56-.36,41.27-2.84,62.09-17.52-20.92-37.91-38.9-61.16-53.92l-3.48-77.84,104.41-48.13c3.32-1.53,4.83-5.43,3.4-8.83l-.1-.24c-1.41-3.34-5.27-4.87-8.55-3.38l-68.93,31.09-5.45-32.34,25.84-12.17c3.18-1.49,4.75-5.03,3.64-8.21l-.2-.54c-1.15-3.3-4.89-4.91-8.07-3.48l-9.13,4.12c-.56-17.6,2.29-34.74,8.55-51.41h0Z"/>
  <path class="cls-36" d="M422.98,513.19l-60.74,28.22-11.65,4.61c-3.02,1.19-6.5-.46-7.74-3.68l-.08-.22c-1.25-3.24.1-6.86,3.08-8.21l24.98-11.36,48.59-22.81c14.3-7.42,29.24-14.06,44.81-19.93,3.04-1.15,6.44.32,7.7,3.3l.1.22c1.33,3.16.06,6.74-2.88,8.11l-46.16,21.74h0Z"/>
  <path class="cls-36" d="M495.1,530.68c-12.91,7.08-29.32,13.01-39.76,18.2-12.71,6.32-24.62,11.5-35.78,15.53-.66.24-1.29.56-1.89.93-4.83,3.16-10.3,5.69-16.41,7.58-3.2.99-6.6-.89-7.48-4.14l-.08-.32c-1.01-3.78,1.05-7.68,4.73-8.95l25.08-11.4,28.32-11.95s.02,0,.04-.02l58.17-27.58c4.71-1.97,9.53-3.74,14.44-5.35,4.47-1.45,7.14-.02,8.01,4.3,1.35,6.56-6.64,10.12-11.85,12.07-8.81,3.32-17.34,7.02-25.56,11.1h0Z"/>
  <path class="cls-43" d="M422.98,513.19l.54,34.92-25.08,11.4c-3.68,1.27-5.75,5.17-4.73,8.95l.08.32c.88,3.24,4.28,5.13,7.48,4.14,6.11-1.89,11.57-4.42,16.41-7.58.6-.38,1.23-.7,1.89-.93,11.16-4.04,23.07-9.21,35.78-15.53,10.44-5.19,26.85-11.12,39.76-18.2l5.91,32.5-29.06,12.77c-.18.08-.34.16-.5.26l-18.26,10.32c-.18.1-.36.24-.52.38-6.15,5.63.16,13.19,7.98,9.15l1.63,51.27-102.42-46.78,2.39-59.13,60.74-28.22h0Z"/>
  <path class="cls-35" d="M563.11,550.56l-85.08,39.36c-.2.1-.4.18-.6.24l-16.79,5.89c-7.82,4.04-14.12-3.52-7.98-9.15.16-.14.34-.28.52-.38l18.26-10.32c.16-.1.32-.18.5-.26l29.06-12.77,74.18-32.9,9.13-4.12c3.18-1.43,6.92.18,8.07,3.48l.2.54c1.11,3.18-.46,6.72-3.64,8.21l-25.84,12.17h0Z"/>
  <path class="cls-33" d="M711.6,786.5c-.54.54-.74,1.05-.58,1.59.08.2.24.36.46.4,32.26,6.19,48.69,34.27,47.17,65.99-.4,8.49.34,14.76-1.15,21.44-.16.72-.93,3.78-2.33,9.21-.24.92-.72,3.28-1.41,7.1-.44,2.35-1.15,4.61-2.17,6.82-1.65,3.6-2.51,5.47-2.57,5.65-1.85,4.83-4,9.61-6.4,14.32-.3.6-.54,1.21-.7,1.85-.8,3.18-2.33,5.69-4.61,7.5-.58.46-.97,1.13-1.05,1.89-.18,1.81-.82,3.26-1.89,4.38-.34.34-.6.76-.76,1.21-1.85,5.07-4.61,9.65-8.27,13.72l-16.17,16.9c-.08.08-.1.16-.08.24.02.08.02.14-.02.18-.06.06-.04.1.04.12.06.02.16,0,.22-.06.34-.36,3.78-4.06,10.28-11.08.22-.24.62-.18.78.1l.34.58c.06.1.04.22-.04.32-11.48,11.81-19.65,20.05-24.48,24.68-8.45,8.09-14.94,13.72-19.41,16.91-5.31,3.76-18.4,12.03-39.26,24.82-.42.26-.95.04-1.11-.42-7.38-21.22-9.75-43.22-7.14-65.99.78-6.74,2.59-14.28,5.47-22.61,5.13-14.92,12.53-30.71,8.85-48.09,5.81-51.95-8.03-101.71-40.63-142,2.49-20.82,3.42-41.53,2.84-62.09l127.54-57.93c3.22-1.45,4.65-5.27,3.24-8.59l-.1-.26c-1.41-3.3-5.21-4.83-8.41-3.4l-94.11,42.02-6.13-31.82,65.35-30.01c.22-.1.42-.24.6-.4,2.8-2.63,3.56-5.37,2.27-8.25-2.82-6.26-11.97-3.08-16.43-.3-1.31-12.03-.89-22.47,1.27-31.36,1.89-7.76,8.79-11.71,17.5-14.22.66-.2,1.37-.08,1.97.28,13.11,8.19,23.03,14.92,29.77,20.17.48.38,7.88,6.23,22.2,17.54,7.2,5.71,14.08,12.05,20.64,19.03,19.05,20.27,35.1,39.18,46.34,64,9.49,21.02,16.69,42.1,21.58,63.28.18.84-.22,1.67-.97,2.03-14.8,7.04-26.81,14.56-41.21,20.35-13.09,5.27-21.14,8.45-24.14,9.51-13.52,4.77-19.97,6.7-30.41,12.57-11.1,6.24-24.22,9.25-32.58,20.21h0Z"/>
  <path class="cls-38" d="M563.11,550.56l5.45,32.34-59.9,27.86c-3.36,1.55-4.83,5.51-3.32,8.89l.12.26c1.45,3.3,5.37,4.75,8.73,3.24l24.14-10.76,3.48,77.84c-25.6-15.87-52.11-30.17-79.53-42.92l-1.63-51.27,16.79-5.89c.2-.06.4-.14.6-.24l85.08-39.36h0Z"/>
  <path class="cls-35" d="M538.33,612.4l-24.14,10.76c-3.36,1.51-7.28.06-8.73-3.24l-.12-.26c-1.51-3.38-.04-7.34,3.32-8.89l59.9-27.86,68.93-31.09c3.28-1.49,7.14.04,8.55,3.38l.1.24c1.43,3.4-.08,7.3-3.4,8.83l-104.41,48.13h0Z"/>
  <path class="cls-35" d="M627.85,622.08c-19.45,9.09-39.02,17.94-58.69,26.59-2.76,1.21-5.69,1.83-8.77,1.87-.68.02-1.33-.2-1.87-.62-2.49-1.85-3.44-4.34-2.86-7.5.12-.66.44-1.27.91-1.73,2.19-2.21,5.37-4.26,9.53-6.15,37.79-17.08,75.64-34.23,113.54-51.43,4.45-2.78,13.6-5.97,16.43.3,1.29,2.88.54,5.63-2.27,8.25-.18.16-.38.3-.6.4l-65.35,30.01h0Z"/>
  <path class="cls-35" d="M605.81,682.06c-3.82-.56-6.11-2.41-6.86-5.53-1.17-4.79,2.82-7.64,6.72-9.27,8.09-3.44,17.54-7.9,28.3-13.36l94.11-42.02c3.2-1.43,7,.1,8.41,3.4l.1.26c1.41,3.32-.02,7.14-3.24,8.59l-127.54,57.93h0Z"/>
  <path class="cls-35" d="M767.46,652.05c1.56,3.43.07,7.46-3.36,9.04l-120.9,55.35c-3.43,1.56-7.47.07-9.04-3.36l-.17-.36c-1.56-3.43-.07-7.46,3.36-9.04l120.9-55.35c3.43-1.56,7.47-.07,9.04,3.36l.17.36h0Z"/>
  <path class="cls-32" d="M374.22,708.58c-47.85,40.39-94.55,77.27-140.07,110.58-14.62,10.68-31.44,21.3-50.5,31.84-14.6-33.33-21.84-72.33-23.27-108.31-.02-.5.3-.97.78-1.13l210-70.72c.84-.28,1.73.34,1.75,1.21l1.31,36.53h0Z"/>
  <path class="cls-34" d="M374.22,708.58l6.44,42.38c-12.79,7.66-22.79,14.28-29.99,19.87-16.83,13.11-51.77,40.93-104.83,83.51-8.33,6.7-22.41,18.89-42.28,36.61-7.5-12.89-14.12-26.21-19.91-39.96,19.05-10.54,35.88-21.16,50.5-31.84,45.52-33.31,92.22-70.19,140.07-110.58h0Z"/>
  <path class="cls-35" d="M725.23,722.1c1.57,3.5,0,7.6-3.5,9.17l-54.25,24.27c-3.49,1.57-7.61,0-9.17-3.5l-.11-.25c-1.57-3.5,0-7.6,3.5-9.17l54.25-24.27c3.49-1.57,7.61,0,9.17,3.5l.11.25h0Z"/>
  <path class="cls-33" d="M928.42,789.36l-.54-3.08c-.1-.5-.72-.68-1.07-.32-11.69,11.91-23.35,20.76-34.98,26.57-17.8,8.91-41.23,17.5-70.32,25.76-12.91,3.68-26.33,5.25-40.27,4.75-.62-.02-1.15-.42-1.37-.99l-5.97-15.91c-3.12-13.74-9.88-25.46-20.27-35.12-.91-.86-.66-2.35.48-2.86l150.81-68.12c.76-.34,1.63-.16,2.19.44,18.32,20.03,22.59,42.44,21.32,68.89h0Z"/>
  <path class="cls-40" d="M380.66,750.96l6.94,24.82-169.98,136.41-14.06-21.24c19.87-17.72,33.95-29.91,42.28-36.61,53.06-42.58,88.01-70.4,104.83-83.51,7.2-5.59,17.2-12.21,29.99-19.87h0Z"/>
  <path class="cls-42" d="M387.6,775.78l10.16,26.09c-41.75,36.89-83.75,70.74-125.97,101.55-10.7,7.82-23.93,16.85-39.7,27.09l-14.48-18.32,169.98-136.41h0Z"/>
  <path class="cls-39" d="M928.42,789.36c-1.39,13.17-4.1,26.05-8.09,38.66-12.69,9.21-24.03,15.45-34.01,18.75-25.12,8.29-49.98,17.24-74.6,26.87-6.78,2.64-20.56,6.34-41.39,11.08,3.22-11.67,5.11-19.59,5.69-23.79,1.37-10.08.66-21.68-2.13-34.8l5.97,15.91c.22.58.76.97,1.37.99,13.94.5,27.37-1.07,40.27-4.75,29.1-8.25,52.52-16.85,70.32-25.76,11.63-5.81,23.29-14.66,34.98-26.57.36-.36.97-.18,1.07.32l.54,3.08h0Z"/>
  <path class="cls-43" d="M409.16,824.03c-16.49,17.96-31.6,32.48-45.35,43.54-36.24,29.18-71.52,55.95-105.51,90.95-9.45-8.57-18.2-17.92-26.21-28,15.77-10.24,29-19.27,39.7-27.09,42.22-30.81,84.23-64.66,125.97-101.55l11.4,22.16h0Z"/>
  <path class="cls-37" d="M437.6,863.82c-19.97,13.56-37.09,26.31-51.37,38.26-35.34,29.57-69.01,55.81-101.01,78.7l-26.91-22.27c33.99-35,69.27-61.77,105.51-90.95,13.74-11.06,28.86-25.58,45.35-43.54,8.33,14.18,17.82,27.45,28.44,39.8h0Z"/>
  <path class="cls-38" d="M920.33,828.02l-5.33,13.98c-10.44,11.71-22.27,20.01-35.5,24.88-23.19,8.55-48.45,19.43-70.48,24.42-13.98,3.16-28.18,5.21-42.64,6.15l3.96-12.73c20.82-4.73,34.61-8.43,41.39-11.08,24.62-9.63,49.48-18.58,74.6-26.87,9.98-3.3,21.32-9.55,34.01-18.75h0Z"/>
  <path class="cls-37" d="M915,842.01c-5.55,12.85-12.31,24.94-20.29,36.28-13.56,4.2-22.87,7.28-27.92,9.27-34.8,13.68-70.74,22.99-107.79,27.9l7.38-18c14.46-.93,28.66-2.98,42.64-6.15,22.04-4.99,47.29-15.87,70.48-24.42,13.23-4.87,25.06-13.17,35.5-24.88h0Z"/>
  <path class="cls-38" d="M469.18,894.75c-20.74,11.06-42.84,25.97-66.31,44.75-28.8,23.03-53.16,45.94-73.09,68.73-15.53-7.64-30.39-16.79-44.57-27.45,32-22.89,65.67-49.12,101.01-78.7,14.28-11.95,31.4-24.7,51.37-38.26,9.8,11.04,20.33,21.36,31.58,30.93h0Z"/>
  <path class="cls-43" d="M894.71,878.28c-11.89,16.57-25.74,31.2-41.51,43.91-32.52,4.22-57.28,11.16-90.35,21.58-4.53,1.43-13.35,3.62-26.43,6.54,8.81-10.68,16.35-22.29,22.57-34.86,37.05-4.91,72.99-14.22,107.79-27.9,5.05-1.99,14.36-5.07,27.92-9.27h0Z"/>
  <path class="cls-39" d="M725.34,949.56c.38.86.24,1.53-.4,2.01-1.55,1.15-2.78,2.11-2.78,2.15.1.74-.28,2.09-1.15,4.02-.28.6-.62,1.17-1.01,1.71-2.92,3.84-5.49,7.16-7.7,9.94-2.31,2.88-5.17,5.95-8.61,9.15-8.73,8.15-17.44,16.53-26.15,25.12-5.79,4.83-12.67,9.21-20.62,13.15-.42.2-.62.68-.46,1.11.14.44.58.7,1.03.6.86-.18,2.05-.14,3.58.16-11.42,5.43-23.21,9.8-35.36,13.13-20.92,5.69-42.06,10.22-63.4,13.62-1.25-9.61-4-18.34,2.29-27.31.36-.52.84-.97,1.37-1.29,10-6.19,17.9-13.74,23.69-22.63,9.05-9.86,15.02-16.63,17.9-20.29,20.31-25.72,32.34-54.97,36.06-87.75,3.68,17.38-3.72,33.17-8.85,48.09-2.88,8.33-4.69,15.87-5.47,22.61-2.61,22.77-.24,44.77,7.14,65.99.16.46.7.68,1.11.42,20.86-12.79,33.95-21.06,39.26-24.82,4.47-3.18,10.96-8.81,19.41-16.91,4.83-4.63,13.01-12.87,24.48-24.68.08-.1.1-.22.04-.32l-.34-.58c-.16-.28-.56-.34-.78-.1-6.5,7.02-9.94,10.72-10.28,11.08-.06.06-.16.08-.22.06-.08-.02-.1-.06-.04-.12.04-.04.04-.1.02-.18-.02-.08,0-.16.08-.24l16.17-16.9h0Z"/>
  <path class="cls-39" d="M469.18,894.75c11.79,9.27,24.28,17.72,37.43,25.34-33.19,16.75-62.79,39.44-91.05,63.3-14.24,12.03-24.54,26.77-30.89,44.21-19.01-4.32-37.31-10.76-54.89-19.37,19.93-22.79,44.29-45.7,73.09-68.73,23.47-18.77,45.56-33.69,66.31-44.75h0Z"/>
  <path class="cls-33" d="M384.68,1027.6c6.34-17.44,16.65-32.18,30.89-44.21,28.26-23.87,57.85-46.56,91.05-63.3,29.16,15.71,60.88,24.42,93.3,29.93.52.08.8.68.54,1.13-13.86,25.36-37.85,43.6-62.71,58.35-14.48,8.61-28.06,12.73-45.9,17.94-8.53,2.49-17.22,4.24-26.11,5.23-27.19,3.08-54.22,1.39-81.04-5.07h0Z"/>
  <path class="cls-40" d="M853.2,922.19c-16.65,14.14-34.9,25.52-54.81,34.15-12.11,5.25-18.22,7.9-18.34,7.96-39.6,18.26-79.27,36.38-118.99,54.37-1.53-.3-2.72-.34-3.58-.16-.46.1-.89-.16-1.03-.6-.16-.44.04-.91.46-1.11,7.96-3.94,14.84-8.31,20.62-13.15,22.79-14.5,42.42-32.28,58.89-53.34,13.09-2.92,21.9-5.11,26.43-6.54,33.07-10.42,57.83-17.36,90.35-21.58h0Z"/>
  <path class="cls-38" d="M589.65,994.19c-5.79,8.89-13.68,16.45-23.69,22.63-.54.32-1.01.78-1.37,1.29-6.28,8.97-3.54,17.7-2.29,27.31-23.05,2.35-46.2,3.22-69.47,2.61-.34,0-.62-.26-.66-.6-.04-.34.18-.66.5-.74,19.71-5.09,38.5-12.73,56.36-22.91,16.43-9.37,29.97-19.23,40.61-29.59h0Z"/>
</svg>